<svg xmlns="http://www.w3.org/2000/svg" width="607" height="159" viewBox="0 0 607 159">
  <defs>
    <style>
      .cls-1 {
        fill: #fe9200;
      }

      .cls-1, .cls-2, .cls-3, .cls-4, .cls-5 {
        fill-rule: evenodd;
      }

      .cls-2 {
        fill: #d3d3d1;
      }

      .cls-3 {
        fill: #1c1c1c;
      }

      .cls-4 {
        fill: #505050;
      }

      .cls-5 {
        fill: #fff;
      }
    </style>
  </defs>
  <path id="Shape_4_copy" data-name="Shape 4 copy" class="cls-1" d="M185.133,40.479c-6.544,0-12.857,1.159-17.742,3.471-4.67,2.228-12.957,9.34-12.957,22.833V104.11h15.48v-33.8c0-1.771.26-7.06,0.491-8.448,1.409-6.887,6.422-8.529,13.852-8.529,0.741,0,1.64.039,2.529,0.1l3.6-12.576A32.539,32.539,0,0,0,185.133,40.479Zm32.987,0c-19.658,0-29.957,15.94-29.957,32.862,0,18.706,11.73,31,31.587,31a57.694,57.694,0,0,0,21.385-3.876L238.869,89.8a46.063,46.063,0,0,1-16.987,2.753c-9.8,0-18.487-4.755-18.879-15.821H244.05a40.222,40.222,0,0,0,.471-6.5C244.521,56.789,238.138,40.479,218.12,40.479ZM203,65.952c0.658-6.268,4.677-14.932,14.25-14.932,10.3,0,12.8,9.272,12.675,14.916Zm63.224-23.709c-5.543,0-9.561,4.14-9.561,9.907,0,5.647,3.88,9.778,9.429,9.778h0.132c5.787,0,9.561-4.131,9.561-9.778C275.657,46.384,271.892,42.243,266.227,42.243Zm0,41.04c-5.543,0-9.561,4.153-9.561,9.916,0,5.525,3.88,9.784,9.429,9.784h0.132c5.787,0,9.561-4.259,9.561-9.784C275.657,87.311,271.882,83.283,266.227,83.283Z"/>
  <g id="Logo">
    <path id="Combined_copy" data-name="Combined copy" class="cls-2" d="M78.535,0C89.228,0,98.052,8.027,98.052,17.909v6.313c0,9.882-8.824,17.911-19.517,17.911h0m0,0c-10.693,0-19.517-8.029-19.517-17.911V17.909C59.018,8.027,67.842,0,78.535,0m0,0h0"/>
    <path id="Combined" class="cls-3" d="M85.478,5.324m0,42.135,0-42.135M36.649,11.912h75.375c6.655,0,12.039,4.941,12.039,10.979V133.373c0,6.039-5.384,10.98-12.039,10.98H36.649c-6.655,0-12.039-4.941-12.039-10.98V22.891c0-6.039,5.384-10.979,12.039-10.979h0Z"/>
    <path class="cls-2" d="M74.177,79.57c5.456,0,9.894-4.166,9.894-9.29a9.628,9.628,0,0,0-9.894-9.358c-5.456,0-9.966,4.167-9.966,9.358,0,5.123,4.511,9.29,9.966,9.29h0Zm0,27.6c5.456,0,9.894-4.166,9.894-9.289a9.672,9.672,0,0,0-9.894-9.358c-5.456,0-9.966,4.235-9.966,9.358s4.511,9.289,9.966,9.289h0Zm0.946,27.869c5.529,0,9.966-4.235,9.966-9.358s-4.437-9.29-9.966-9.29c-5.456,0-9.894,4.167-9.894,9.29a9.672,9.672,0,0,0,9.894,9.358h0Z"/>
    <path id="Shape_3_copy" data-name="Shape 3 copy" class="cls-4" d="M39.331,20.349h70.347a4.421,4.421,0,0,1,4.583,4.235V46.305a4.421,4.421,0,0,1-4.583,4.235H39.331a4.4,4.4,0,0,1-4.51-4.235V24.584a4.4,4.4,0,0,1,4.51-4.235h0Z"/>
    <path id="receipt" class="cls-1" d="M20.662,0C39.892,0,63.043.067,82.2,0.067c-26.4,1.577-20.266,23.858-21.005,46.14L61.637,159,51.5,153.788,41.224,159l-9.985-4.868L20.81,159,10.6,154.336,0.249,159V47.029c-0.074-17-.961-26.806.961-33.662C3.725,4.317,11.713.889,20.662,0h0Z"/>
    <path id="yellow_Buts" data-name="yellow Buts" class="cls-1" d="M93.183,125.659v-27.7c0-5.211,4.6-9.461,10.233-9.461h0c5.635,0,10.232,4.25,10.232,9.461v27.7c0,5.21-4.6,9.529-10.232,9.529h0c-5.635,0-10.233-4.319-10.233-9.529h0Zm9.714-46c5.561,0,10.158-4.251,10.158-9.393s-4.6-9.324-10.158-9.324-10.084,4.182-10.084,9.324,4.523,9.393,10.084,9.393h0Z"/>
    <path id="qr" class="cls-5" d="M12.179,92.928H50.245a1.52,1.52,0,0,1,1.525,1.442h0a1.531,1.531,0,0,1-1.525,1.511H12.179a1.519,1.519,0,0,1-1.456-1.511h0a1.505,1.505,0,0,1,1.456-1.442h0Zm0,9.494H50.245a1.474,1.474,0,0,1,1.525,1.442h0a1.474,1.474,0,0,1-1.525,1.441H12.179a1.457,1.457,0,0,1-1.456-1.441h0a1.458,1.458,0,0,1,1.456-1.442h0Zm0,9.045h38.1a1.473,1.473,0,0,1,1.456,1.511h0a1.457,1.457,0,0,1-1.456,1.441h-38.1a1.5,1.5,0,0,1-1.456-1.441h0a1.519,1.519,0,0,1,1.456-1.511h0Zm7.368-56.684h7.861V62.06H19.547V54.783ZM16.58,64.806H30.375V52.037H16.58v12.77ZM36.309,54.783H44.17V62.06H36.309V54.783ZM33.342,64.806h13.8V52.037h-13.8v12.77ZM19.547,70.3h7.861v7.277H19.547V70.3ZM16.58,80.322H30.375V67.552H16.58v12.77Zm20.247-6.385H33.342v3.227h3.486V73.937Zm0,6.385h3.411V77.164H36.828v3.158Zm6.9-3.158V73.937H40.239v3.227h3.486Zm-3.486-6.385H36.828v3.158h3.411V70.779Zm-3.411-3.227H33.342v3.227h3.486V67.552Zm6.9,3.227V67.552H40.239v3.227h3.486Zm0,3.158h3.412V70.779H43.725v3.158Zm0,6.385h3.412V77.164H43.725v3.158ZM38.311,60.275h3.931V56.636H38.311v3.639Zm-16.761,0H25.48V56.636H21.549v3.639Zm0,15.516H25.48V72.084H21.549v3.707Z"/>
    <path id="T" class="cls-5" d="M94.367,26.054h11.46a1.251,1.251,0,0,1,1.286,1.19h0a1.246,1.246,0,0,1-1.286,1.136H94.367a1.191,1.191,0,0,1-1.228-1.136h0a1.2,1.2,0,0,1,1.228-1.19h0Zm-0.058,4.76h11.459A1.157,1.157,0,0,1,107,31.951h0a1.157,1.157,0,0,1-1.228,1.136h-4.5v9.9a1.156,1.156,0,0,1-1.227,1.136h0a1.157,1.157,0,0,1-1.228-1.136v-9.9h-4.5a1.209,1.209,0,0,1-1.286-1.136h0a1.209,1.209,0,0,1,1.286-1.136h0Z"/>
  </g>
  <path id="Kassa_copy" data-name="Kassa copy" class="cls-1" d="M289.348,102.852l15.467,0.01,0.058-30.1,7.624-9.138,24.14,39.256,18.257,0.011L323.673,53.729,353.156,17.3l-19.271-.012L304.9,55.376l0.075-38.105-15.467-.01ZM407.3,102.929a99.224,99.224,0,0,1-.859-14.859l0.043-22.35c0.026-13.461-5.655-26.037-25.433-26.05-9.762-.006-17.754,2.655-22.324,5.446l3.023,10.161a32.692,32.692,0,0,1,16.617-4.561c10.9,0.007,12.539,6.739,12.531,10.8l0,1.016c-22.82-.142-36.655,7.722-36.685,23.342-0.018,9.4,6.938,18.418,19.363,18.426,7.987,0,14.459-3.42,18.272-8.243h0.38l1,6.858ZM391.242,81.2a11.271,11.271,0,0,1-.514,3.428,12.654,12.654,0,0,1-12.187,8.5c-4.945,0-8.87-2.8-8.858-8.895,0.018-9.4,10.545-11.8,21.575-11.542Zm21.989,18.682c4.559,2.542,11.275,4.325,18.755,4.33,16.355,0.01,25.119-8.112,25.14-19.287-0.109-9.143-5.3-14.861-16.445-18.932-7.855-2.8-10.767-4.706-10.76-8.642,0.007-3.81,3.055-6.475,8.634-6.471a27.663,27.663,0,0,1,13.051,3.564L454.67,43.4a36.175,36.175,0,0,0-16.347-3.693C424,39.7,414.978,48.2,414.958,59.122c-0.141,7.238,4.917,13.845,16.954,18.044,7.6,2.672,10.133,4.832,10.125,9.023-0.008,4.064-3.056,6.855-9.9,6.851A34.7,34.7,0,0,1,416.3,88.584Zm46.534,0.03c4.559,2.543,11.275,4.325,18.755,4.33,16.355,0.01,25.118-8.111,25.14-19.286-0.109-9.143-5.3-14.861-16.445-18.932-7.856-2.8-10.768-4.706-10.76-8.642,0.007-3.81,3.055-6.475,8.633-6.471a27.667,27.667,0,0,1,13.052,3.564L501.2,43.431a36.177,36.177,0,0,0-16.348-3.693c-14.326-.009-23.344,8.493-23.365,19.414C461.35,66.39,466.409,73,478.445,77.2c7.6,2.672,10.133,4.832,10.125,9.023-0.007,4.064-3.056,6.856-9.9,6.851a34.713,34.713,0,0,1-15.839-4.455Zm102.312,3.114a99.212,99.212,0,0,1-.859-14.858l0.043-22.35c0.025-13.461-5.656-26.037-25.433-26.05-9.763-.006-17.755,2.655-22.324,5.446l3.023,10.161a32.69,32.69,0,0,1,16.617-4.561c10.9,0.007,12.538,6.739,12.531,10.8l0,1.016c-22.821-.142-36.655,7.722-36.685,23.342-0.018,9.4,6.937,18.418,19.362,18.426,7.987,0.005,14.46-3.419,18.272-8.242H547l1,6.858ZM546.017,81.3a11.24,11.24,0,0,1-.514,3.428,12.654,12.654,0,0,1-12.187,8.5c-4.944,0-8.869-2.8-8.858-8.9,0.018-9.4,10.546-11.8,21.575-11.542Z"/>
</svg>
